<!--
  - Copyright (c) 2023. Tous droits réservés.
  - Aucun élément de ce site web ne peut être reproduit, affiché, modifié ou distribué sans la permission écrite préalable du titulaire du droit d'auteur.
  - Ce site web, son contenu et tous les produits créés par JJA DEV sont protégés par les lois sur les droits d'auteur et la propriété intellectuelle. Tous les droits sont réservés à JJA DEV.
  -
  - L'utilisation non autorisée de tout élément de ce site, y compris, mais sans s'y limiter, le texte, les images, les dessins, les graphiques, les logos et les marques de commerce, peut constituer une violation des lois sur le droit d'auteur, des lois sur les marques de commerce ou d'autres lois applicables et peut entraîner des poursuites judiciaires.
  -
  - Pour obtenir la permission d'utiliser du contenu de ce site, veuillez contacter JJA DEV.
  -
  - Merci de votre compréhension et de votre respect envers notre travail créatif et nos droits de propriété intellectuelle.
  -->

<svg xmlns:xlink="http://www.w3.org/1999/xlink" id="visual" viewBox="0 0 900 400" width="900" height="400"
     xmlns="http://www.w3.org/2000/svg" version="1.1">
    <path d="M0 369L16.7 365.7C33.3 362.3 66.7 355.7 100 360.5C133.3 365.3 166.7 381.7 200 388.3C233.3 395 266.7 392 300 385.8C333.3 379.7 366.7 370.3 400 368.3C433.3 366.3 466.7 371.7 500 364.8C533.3 358 566.7 339 600 332.2C633.3 325.3 666.7 330.7 700 342.5C733.3 354.3 766.7 372.7 800 378.8C833.3 385 866.7 379 883.3 376L900 373L900 451L883.3 451C866.7 451 833.3 451 800 451C766.7 451 733.3 451 700 451C666.7 451 633.3 451 600 451C566.7 451 533.3 451 500 451C466.7 451 433.3 451 400 451C366.7 451 333.3 451 300 451C266.7 451 233.3 451 200 451C166.7 451 133.3 451 100 451C66.7 451 33.3 451 16.7 451L0 451Z"
          fill="#e3e3e3" stroke-linecap="round" stroke-linejoin="miter"></path>
</svg>