<svg xmlns:xlink="http://www.w3.org/1999/xlink" id="visual" viewBox="0 0 900 450" width="900" height="450"
     xmlns="http://www.w3.org/2000/svg" version="1.1">
    <path d="M0 79L16.7 82.3C33.3 85.7 66.7 92.3 100 87.5C133.3 82.7 166.7 66.3 200 59.7C233.3 53 266.7 56 300 62.2C333.3 68.3 366.7 77.7 400 79.7C433.3 81.7 466.7 76.3 500 83.2C533.3 90 566.7 109 600 115.8C633.3 122.7 666.7 117.3 700 105.5C733.3 93.7 766.7 75.3 800 69.2C833.3 63 866.7 69 883.3 72L900 75L900 0L883.3 0C866.7 0 833.3 0 800 0C766.7 0 733.3 0 700 0C666.7 0 633.3 0 600 0C566.7 0 533.3 0 500 0C466.7 0 433.3 0 400 0C366.7 0 333.3 0 300 0C266.7 0 233.3 0 200 0C166.7 0 133.3 0 100 0C66.7 0 33.3 0 16.7 0L0 0Z"
          fill="#FFFFFF" stroke-linecap="round" stroke-linejoin="miter"></path>
</svg>