<svg xmlns:xlink="http://www.w3.org/1999/xlink" id="visual" viewBox="0 0 900 100" width="900" height="100"
     xmlns="http://www.w3.org/2000/svg" version="1.1">
    <path d="M0 41L18.8 42.8C37.7 44.7 75.3 48.3 112.8 47.3C150.3 46.3 187.7 40.7 225.2 42.2C262.7 43.7 300.3 52.3 337.8 52.7C375.3 53 412.7 45 450.2 41.5C487.7 38 525.3 39 562.8 40.7C600.3 42.3 637.7 44.7 675.2 47.5C712.7 50.3 750.3 53.7 787.8 53.8C825.3 54 862.7 51 881.3 49.5L900 48L900 0L881.3 0C862.7 0 825.3 0 787.8 0C750.3 0 712.7 0 675.2 0C637.7 0 600.3 0 562.8 0C525.3 0 487.7 0 450.2 0C412.7 0 375.3 0 337.8 0C300.3 0 262.7 0 225.2 0C187.7 0 150.3 0 112.8 0C75.3 0 37.7 0 18.8 0L0 0Z"
          fill="#e3e3e3" stroke-linecap="round" stroke-linejoin="miter"></path>
</svg>